Coordinates
version=1
nRows=29
nColumns=24
inDegrees=yes

Units are S.I. units (second, meters, Newtons, ...)
Angles are in degrees.

endheader
time	pelvis_tilt	pelvis_list	pelvis_rotation	pelvis_tx	pelvis_ty	pelvis_tz	hip_flexion_r	hip_adduction_r	hip_rotation_r	knee_angle_r	ankle_angle_r	subtalar_angle_r	mtp_angle_r	hip_flexion_l	hip_adduction_l	hip_rotation_l	knee_angle_l	ankle_angle_l	subtalar_angle_l	mtp_angle_l	lumbar_extension	lumbar_bending	lumbar_rotation
      0.40000000	      5.18629404	     -1.88676648	     -0.69482755	      0.60162386	      1.04545552	     -0.02148944	     19.56730088	     -3.99019682	     -8.72476518	    -55.24623342	      3.73048635	      5.17279368	      0.00000000	     -6.16182614	      0.52208996	     -8.58038450	     -7.47154637	      6.97884698	     14.94924112	      0.00000000	    -19.82229534	     -0.43801785	     -4.81899579
      0.41666667	      5.14566254	     -1.79477033	     -0.55723073	      0.59889873	      1.04456614	     -0.02280813	     20.07220615	     -4.10025176	     -9.32973488	    -50.36821261	      3.70764911	      5.17279347	      0.00000000	     -7.58928874	      0.75628477	     -8.42846040	     -6.51984365	      7.25248980	     14.94924121	      0.00000000	    -20.08516344	     -0.34584210	     -5.11332526
      0.43333333	      5.04228809	     -1.47229001	     -0.60685115	      0.59660102	      1.04301471	     -0.02292886	     20.41306838	     -4.37306457	    -10.03618567	    -45.02674507	      3.57918192	      5.17279300	      0.00000000	     -9.00217073	      1.20646203	     -8.46329271	     -5.51907899	      7.51505519	     14.94924136	      0.00000000	    -20.11675898	     -0.65760883	     -5.13707801
      0.45000000	      5.15202837	     -1.03718774	     -0.49100809	      0.59443683	      1.04131932	     -0.02311745	     20.24230917	     -4.73824481	    -11.01275223	    -39.21552030	      3.27125087	      5.17279274	      0.00000000	    -10.55080062	      1.72935240	     -8.29326523	     -4.70993646	      7.88833231	     14.94924149	      0.00000000	    -20.34066185	     -1.00064672	     -5.28412611
      0.46666667	      4.99604401	     -0.35635927	     -0.44630116	      0.59191188	      1.03874616	     -0.02310968	     20.24613435	     -5.19389863	    -11.85850040	    -33.13486316	      2.80572004	      5.17279300	      0.00000000	    -11.70373094	      2.49221192	     -8.12918142	     -4.09204414	      8.30884328	     14.94924158	      0.00000000	    -20.27615835	     -1.67779768	     -5.46035374
      0.48333333	      4.91027577	     -0.06339759	      0.00037208	      0.59057339	      1.03633672	     -0.02277664	     19.66074967	     -5.13587698	    -13.03110618	    -26.43796683	      2.20081783	      5.17279375	      0.00000000	    -13.14767522	      2.70771171	     -7.60391531	     -3.17859192	      8.65092845	     14.94924158	      0.00000000	    -20.23701698	     -1.84736407	     -5.79306259
      0.50000000	      4.74644426	      0.37053715	      0.00825974	      0.58952459	      1.03329342	     -0.02134306	     19.17530713	     -4.89137839	    -13.21484342	    -19.79994262	      1.65925541	      5.17279486	      0.00000000	    -14.48701201	      3.11253893	     -7.50363951	     -2.41796141	      9.05492727	     14.94924184	      0.00000000	    -20.06479483	     -2.35750776	     -5.60986119
      0.51666667	      4.59004737	      0.93254308	      0.08370485	      0.58820659	      1.02973764	     -0.02049963	     18.73368371	     -4.79716009	    -12.71351489	    -13.57126744	      1.34055908	      5.17279617	      0.00000000	    -15.74380558	      3.64669577	     -7.27078515	     -1.82403211	      9.49685689	     14.94924194	      0.00000000	    -19.93433213	     -2.83063583	     -5.78509647
      0.53333333	      4.40114340	      1.49925265	      0.41204665	      0.58714500	      1.02580582	     -0.01995201	     18.30300170	     -4.86719377	    -11.87887396	     -7.99564555	      1.32894712	      5.17279736	      0.00000000	    -16.83440666	      4.07796762	     -6.71208940	     -1.53988009	     10.10015260	     14.94924201	      0.00000000	    -19.75194615	     -3.22354978	     -5.93905642
      0.55000000	      4.30187447	      2.08393388	      0.31243452	      0.58666202	      1.02180831	     -0.01900599	     17.90658115	     -4.98032944	    -10.35017217	     -3.37834377	      1.56166126	      5.17279826	      0.00000000	    -18.10894460	      4.64185894	     -6.54112947	     -1.16628165	     10.58704768	     14.94924220	      0.00000000	    -19.61890639	     -3.63933508	     -6.00077433
      0.56666667	      4.21904891	      2.52741922	      0.30394126	      0.58577971	      1.01787808	     -0.01824105	     17.85315830	     -5.15577859	     -8.91502733	     -0.41588344	      2.06442498	      5.17279869	      0.00000000	    -19.17779842	      4.99783009	     -6.22527614	     -1.21545670	     11.23609322	     14.94924234	      0.00000000	    -19.53668801	     -3.89434294	     -5.85734083
      0.58333333	      4.05885281	      2.83788472	      0.97831076	      0.58416201	      1.01439425	     -0.01802758	     18.03086491	     -5.48215107	     -8.55341088	      1.05936305	      2.39837178	      5.17279911	      0.00000000	    -19.70753070	      4.91721515	     -5.31243900	     -2.09741533	     12.12659255	     14.94924247	      0.00000000	    -19.63595542	     -3.70680386	     -6.29331472
      0.60000000	      4.06481980	      2.84351450	      1.01553245	      0.58484166	      1.01167972	     -0.01611221	     18.25315122	     -5.30153144	     -8.02846267	      0.97256091	      2.58884384	      5.17279899	      0.00000000	    -20.64059518	      4.65468642	     -5.09483951	     -2.75307437	     12.72487858	     14.94924274	      0.00000000	    -19.49238168	     -3.48827700	     -6.01927744
      0.61666667	      3.97593168	      2.58191061	      1.30140515	      0.58544233	      1.00935079	     -0.01370878	     18.89038017	     -4.94186681	     -8.08498044	     -0.73512707	      2.33355602	      5.17279852	      0.00000000	    -21.13753968	      3.95411567	     -4.74815125	     -4.01381645	     13.45342980	     14.94924304	      0.00000000	    -19.41300081	     -2.94288087	     -6.09705535
      0.63333333	      3.94742627	      2.52674315	      1.84193368	      0.58640191	      1.00780962	     -0.01128785	     19.56901372	     -4.91399849	     -8.45459296	     -3.44821927	      1.67636052	      5.17279776	      0.00000000	    -21.49933642	      3.32891130	     -4.05802046	     -5.62857651	     13.96067418	     14.94924335	      0.00000000	    -19.39433186	     -2.56376959	     -6.37648558
      0.65000000	      3.81843891	      2.35355655	      2.34332363	      0.58789477	      1.00653175	     -0.00825982	     20.35827837	     -4.77685166	     -8.93858548	     -6.61797479	      0.65825385	      5.17279708	      0.00000000	    -21.62783856	      2.57255501	     -3.38523395	     -7.48641430	     14.30323814	     14.94924370	      0.00000000	    -19.15799341	     -2.14128197	     -6.73649257
      0.66666667	      3.68785941	      2.26936500	      2.74231120	      0.58984807	      1.00594960	     -0.00571677	     21.03118199	     -4.78020210	     -9.23820649	     -9.78585696	     -0.44735323	      5.17279649	      0.00000000	    -21.55941818	      1.99962107	     -2.71235486	     -9.72393241	     14.30354838	     14.94924405	      0.00000000	    -18.88582946	     -1.60872568	     -6.89259903
      0.68333333	      3.76684711	      2.19506033	      2.88045239	      0.59152447	      1.00610595	     -0.00284957	     21.63514134	     -4.75063919	     -9.20156055	    -13.34790172	     -1.04055250	      5.17279593	      0.00000000	    -21.34831981	      1.52631929	     -2.25993681	    -12.61379624	     14.00038031	     14.94924443	      0.00000000	    -18.78709451	     -1.11331922	     -6.76461526
      0.70000000	      4.04868817	      1.88049146	      3.19974562	      0.59490272	      1.00735474	     -0.00037403	     21.66576196	     -4.53839188	     -9.30121624	    -16.61821110	     -1.06256550	      5.17279542	      0.00000000	    -21.06332366	      0.73569843	     -1.78948030	    -16.09187728	     13.19496476	     14.94924486	      0.00000000	    -18.91141369	     -0.37487376	     -6.83261678
      0.71666667	      4.33196974	      1.55799525	      3.44546128	      0.59793266	      1.00908599	      0.00216575	     21.21751564	     -4.25014743	     -9.38111677	    -18.96834319	     -0.93711937	      5.17279506	      0.00000000	    -20.15742901	     -0.04766369	     -1.57228375	    -20.57434050	     11.90894341	     14.94924543	      0.00000000	    -18.91403582	      0.49312396	     -6.91698636
      0.73333333	      4.43311271	      1.34829062	      3.63379011	      0.60015423	      1.01054934	      0.00540367	     20.88388072	     -4.02086432	     -9.46256502	    -21.12256582	     -0.46098422	      5.17279497	      0.00000000	    -18.12861893	     -0.77070403	     -1.67531218	    -26.54690890	     10.10551083	     14.94924597	      0.00000000	    -18.79529295	      1.00452490	     -6.75668343
      0.75000000	      4.58430113	      0.93300138	      3.74722897	      0.60283541	      1.01247724	      0.00873902	     19.99201949	     -3.49123634	     -9.73072300	    -22.37529241	      0.19181134	      5.17279539	      0.00000000	    -15.78851434	     -1.81298992	     -2.34875831	    -32.82097259	      7.25728182	     14.94924624	      0.00000000	    -18.69815709	      1.71646123	     -6.89695778
      0.76666667	      4.53347030	      0.46759984	      3.86353699	      0.60481515	      1.01413118	      0.01198977	     19.19917424	     -2.86904475	     -9.97503934	    -23.35836578	      1.19706812	      5.17279557	      0.00000000	    -12.69976855	     -3.13136378	     -3.49753336	    -39.52872698	      3.56494003	     14.94924603	      0.00000000	    -18.45693599	      2.40855072	     -6.54536476
      0.78333333	      4.54814499	     -0.22714796	      3.95478641	      0.60553008	      1.01589914	      0.01577673	     18.06741241	     -1.88402213	    -10.30169556	    -23.60137994	      2.11426216	      5.17279586	      0.00000000	     -9.48840325	     -4.92251766	     -4.83516753	    -45.91437815	     -0.40056418	     14.94924433	      0.00000000	    -18.35444728	      3.23371859	     -6.07202930
      0.80000000	      4.67861822	     -1.13559746	      3.86794681	      0.60624589	      1.01770711	      0.01975371	     16.75994472	     -0.56208923	    -10.43405786	    -23.66769420	      3.16992514	      5.17279584	      0.00000000	     -6.44564344	     -7.08511452	     -6.30239801	    -51.76052318	     -3.76214659	     14.94924162	      0.00000000	    -18.34988131	      4.21306214	     -5.17868340
      0.81666667	      4.84048956	     -2.04947425	      3.93038863	      0.60665020	      1.02010743	      0.02378966	     15.06763070	      0.80656634	    -10.68551038	    -22.97835759	      3.97528007	      5.17279578	      0.00000000	     -3.63425897	     -9.19817189	     -7.17451105	    -56.67697358	     -5.63141388	     14.94923784	      0.00000000	    -18.25339456	      5.14521768	     -4.98752045
      0.83333333	      5.04489058	     -2.59386636	      3.93439777	      0.60659792	      1.02294083	      0.02733691	     13.33059343	      1.79415126	    -10.71263269	    -22.26981635	      4.76677029	      5.17279589	      0.00000000	     -1.02479710	    -10.68813290	     -7.69232261	    -60.79700144	     -5.86099355	     14.94923416	      0.00000000	    -18.37560709	      5.64687973	     -4.17239755
      0.85000000	      5.21523103	     -2.96206166	      3.77563575	      0.60632965	      1.02609078	      0.03069349	     11.44949879	      2.63209099	    -10.54469731	    -21.15947731	      5.33998267	      5.17279594	      0.00000000	      1.46202854	    -11.67362324	     -7.98060628	    -64.12613342	     -4.80562369	     14.94923101	      0.00000000	    -18.56457907	      5.83804920	     -3.48036494
      0.86666667	      5.42034420	     -2.99729761	      3.54717622	      0.60594519	      1.02946207	      0.03364013	      9.57736116	      3.07727254	    -10.20945983	    -20.18879959	      5.89315903	      5.17279607	      0.00000000	      3.73153624	    -12.04742330	     -8.19516309	    -66.58206003	     -3.21196934	     14.94922886	      0.00000000	    -18.71584344	      5.73241074	     -2.71286496
